<svg id="Layer_2" data-name="Layer 2" xmlns="http://www.w3.org/2000/svg" viewBox="0 0 576 503.08"><title>Artboard 11</title><path d="M514,0H62.89A62,62,0,0,0,.9,62v379.1a62,62,0,0,0,62,62H514a62,62,0,0,0,62-62V62A62,62,0,0,0,514,0ZM324,56.4a35.43,35.43,0,1,1-35.43,35.43A35.43,35.43,0,0,1,324,56.4Zm-105.83,0a35.43,35.43,0,1,1-35.43,35.43A35.43,35.43,0,0,1,218.19,56.4Zm-107.13,0A35.43,35.43,0,1,1,75.63,91.83,35.43,35.43,0,0,1,111.06,56.4ZM520.78,439.47a7.56,7.56,0,0,1-7.56,7.56H64.41a7.56,7.56,0,0,1-7.56-7.56V187.58A7.56,7.56,0,0,1,64.41,180H513.22a7.56,7.56,0,0,1,7.56,7.56Z"/></svg>